<mxfile host="app.diagrams.net" modified="2023-08-06T18:42:10.705Z" agent="Mozilla/5.0 (Macintosh; Intel Mac OS X 10_15_7) AppleWebKit/537.36 (KHTML, like Gecko) Chrome/114.0.0.0 Safari/537.36" etag="Ywl7cjY_LVKRT3HLwDkP" version="21.6.6" type="github">
  <diagram name="Page-1" id="Gffe8G346MC-sbOflWHO">
    <mxGraphModel dx="954" dy="592" grid="1" gridSize="10" guides="1" tooltips="1" connect="1" arrows="1" fold="1" page="1" pageScale="1" pageWidth="850" pageHeight="1100" math="0" shadow="0">
      <root>
        <mxCell id="0" />
        <mxCell id="1" parent="0" />
        <mxCell id="YVuwnPP_vi3sLp1GF6mC-22" style="edgeStyle=orthogonalEdgeStyle;rounded=0;orthogonalLoop=1;jettySize=auto;html=1;exitX=1;exitY=0.5;exitDx=0;exitDy=0;entryX=0;entryY=0.5;entryDx=0;entryDy=0;" edge="1" parent="1" source="YVuwnPP_vi3sLp1GF6mC-1" target="YVuwnPP_vi3sLp1GF6mC-10">
          <mxGeometry relative="1" as="geometry" />
        </mxCell>
        <mxCell id="YVuwnPP_vi3sLp1GF6mC-37" style="edgeStyle=orthogonalEdgeStyle;rounded=0;orthogonalLoop=1;jettySize=auto;html=1;exitX=0.25;exitY=0;exitDx=0;exitDy=0;entryX=0.25;entryY=1;entryDx=0;entryDy=0;" edge="1" parent="1">
          <mxGeometry relative="1" as="geometry">
            <mxPoint x="140" y="279" as="sourcePoint" />
            <mxPoint x="140" y="155" as="targetPoint" />
          </mxGeometry>
        </mxCell>
        <mxCell id="YVuwnPP_vi3sLp1GF6mC-1" value="" style="whiteSpace=wrap;html=1;aspect=fixed;" vertex="1" parent="1">
          <mxGeometry x="24" y="279" width="280" height="280" as="geometry" />
        </mxCell>
        <mxCell id="YVuwnPP_vi3sLp1GF6mC-4" value="Login Page" style="text;html=1;strokeColor=none;fillColor=none;align=center;verticalAlign=middle;whiteSpace=wrap;rounded=0;" vertex="1" parent="1">
          <mxGeometry x="124" y="559" width="85" height="30" as="geometry" />
        </mxCell>
        <mxCell id="YVuwnPP_vi3sLp1GF6mC-5" value="" style="whiteSpace=wrap;html=1;aspect=fixed;fillColor=#dae8fc;strokeColor=#6c8ebf;" vertex="1" parent="1">
          <mxGeometry x="106.5" y="354" width="115" height="115" as="geometry" />
        </mxCell>
        <mxCell id="YVuwnPP_vi3sLp1GF6mC-6" value="Login Component" style="text;html=1;strokeColor=none;fillColor=none;align=center;verticalAlign=middle;whiteSpace=wrap;rounded=0;" vertex="1" parent="1">
          <mxGeometry x="134" y="396.5" width="60" height="30" as="geometry" />
        </mxCell>
        <mxCell id="YVuwnPP_vi3sLp1GF6mC-10" value="" style="whiteSpace=wrap;html=1;aspect=fixed;" vertex="1" parent="1">
          <mxGeometry x="544" y="279" width="280" height="280" as="geometry" />
        </mxCell>
        <mxCell id="YVuwnPP_vi3sLp1GF6mC-14" value="FlightsDown&lt;br&gt;Component" style="whiteSpace=wrap;html=1;aspect=fixed;fillColor=#ffe6cc;strokeColor=#d79b00;" vertex="1" parent="1">
          <mxGeometry x="655.25" y="298.39" width="72.5" height="72.5" as="geometry" />
        </mxCell>
        <mxCell id="YVuwnPP_vi3sLp1GF6mC-15" value="" style="rounded=0;whiteSpace=wrap;html=1;fillColor=#dae8fc;strokeColor=#6c8ebf;" vertex="1" parent="1">
          <mxGeometry x="571.5" y="391" width="240" height="130" as="geometry" />
        </mxCell>
        <mxCell id="YVuwnPP_vi3sLp1GF6mC-16" value="Dashboard Page" style="text;html=1;strokeColor=none;fillColor=none;align=center;verticalAlign=middle;whiteSpace=wrap;rounded=0;" vertex="1" parent="1">
          <mxGeometry x="634" y="559" width="120" height="30" as="geometry" />
        </mxCell>
        <mxCell id="YVuwnPP_vi3sLp1GF6mC-17" value="FligtsView Component" style="text;html=1;strokeColor=none;fillColor=none;align=center;verticalAlign=middle;whiteSpace=wrap;rounded=0;" vertex="1" parent="1">
          <mxGeometry x="646.5" y="429" width="90" height="40" as="geometry" />
        </mxCell>
        <mxCell id="YVuwnPP_vi3sLp1GF6mC-19" value="FlightsSub&lt;br&gt;Component" style="whiteSpace=wrap;html=1;aspect=fixed;fillColor=#dae8fc;strokeColor=#6c8ebf;" vertex="1" parent="1">
          <mxGeometry x="739" y="298.39" width="72.5" height="72.5" as="geometry" />
        </mxCell>
        <mxCell id="YVuwnPP_vi3sLp1GF6mC-20" value="FlightsAdd&lt;br&gt;Component" style="whiteSpace=wrap;html=1;aspect=fixed;fillColor=#ffe6cc;strokeColor=#d79b00;" vertex="1" parent="1">
          <mxGeometry x="571.5" y="298.39" width="72.5" height="72.5" as="geometry" />
        </mxCell>
        <mxCell id="YVuwnPP_vi3sLp1GF6mC-26" value="" style="rounded=0;whiteSpace=wrap;html=1;" vertex="1" parent="1">
          <mxGeometry x="324" y="319" width="200" height="60" as="geometry" />
        </mxCell>
        <mxCell id="YVuwnPP_vi3sLp1GF6mC-28" value="hasFlightsAddPermision: true&lt;br&gt;&lt;br&gt;hasFlightsDownPermision: true" style="text;html=1;strokeColor=none;fillColor=none;align=left;verticalAlign=middle;whiteSpace=wrap;rounded=0;" vertex="1" parent="1">
          <mxGeometry x="334" y="319" width="180" height="60" as="geometry" />
        </mxCell>
        <mxCell id="YVuwnPP_vi3sLp1GF6mC-29" value="Input" style="text;html=1;strokeColor=none;fillColor=none;align=center;verticalAlign=middle;whiteSpace=wrap;rounded=0;" vertex="1" parent="1">
          <mxGeometry x="394" y="379" width="60" height="30" as="geometry" />
        </mxCell>
        <mxCell id="YVuwnPP_vi3sLp1GF6mC-30" value="user@gmail.com" style="text;html=1;align=center;verticalAlign=middle;resizable=0;points=[];autosize=1;strokeColor=none;fillColor=none;" vertex="1" parent="1">
          <mxGeometry x="364" y="289" width="110" height="30" as="geometry" />
        </mxCell>
        <mxCell id="YVuwnPP_vi3sLp1GF6mC-36" style="edgeStyle=orthogonalEdgeStyle;rounded=0;orthogonalLoop=1;jettySize=auto;html=1;exitX=0.5;exitY=1;exitDx=0;exitDy=0;" edge="1" parent="1">
          <mxGeometry relative="1" as="geometry">
            <mxPoint x="180" y="155" as="sourcePoint" />
            <mxPoint x="180" y="279" as="targetPoint" />
          </mxGeometry>
        </mxCell>
        <mxCell id="YVuwnPP_vi3sLp1GF6mC-33" value="" style="rounded=0;whiteSpace=wrap;html=1;" vertex="1" parent="1">
          <mxGeometry x="24" y="95" width="280" height="60" as="geometry" />
        </mxCell>
        <mxCell id="YVuwnPP_vi3sLp1GF6mC-34" value="&amp;nbsp;Flights Login Service" style="text;html=1;strokeColor=none;fillColor=none;align=center;verticalAlign=middle;whiteSpace=wrap;rounded=0;" vertex="1" parent="1">
          <mxGeometry x="60" y="110" width="200" height="30" as="geometry" />
        </mxCell>
        <mxCell id="YVuwnPP_vi3sLp1GF6mC-39" value="" style="whiteSpace=wrap;html=1;aspect=fixed;" vertex="1" parent="1">
          <mxGeometry x="194" y="190" width="50" height="50" as="geometry" />
        </mxCell>
        <mxCell id="YVuwnPP_vi3sLp1GF6mC-40" value="JWT &lt;br&gt;Token" style="text;html=1;strokeColor=none;fillColor=none;align=center;verticalAlign=middle;whiteSpace=wrap;rounded=0;" vertex="1" parent="1">
          <mxGeometry x="200" y="201.5" width="41" height="28.5" as="geometry" />
        </mxCell>
        <mxCell id="YVuwnPP_vi3sLp1GF6mC-44" value="" style="whiteSpace=wrap;html=1;aspect=fixed;" vertex="1" parent="1">
          <mxGeometry x="70" y="190" width="50" height="50" as="geometry" />
        </mxCell>
        <mxCell id="YVuwnPP_vi3sLp1GF6mC-45" value="Login&lt;br&gt;Details" style="text;html=1;strokeColor=none;fillColor=none;align=center;verticalAlign=middle;whiteSpace=wrap;rounded=0;" vertex="1" parent="1">
          <mxGeometry x="77.5" y="200" width="35" height="30" as="geometry" />
        </mxCell>
      </root>
    </mxGraphModel>
  </diagram>
</mxfile>
